<?xml version="1.0" standalone="no"?>
<!DOCTYPE svg PUBLIC "-//W3C//DTD SVG 20010904//EN"
 "http://www.w3.org/TR/2001/REC-SVG-20010904/DTD/svg10.dtd">
<svg version="1.0" xmlns="http://www.w3.org/2000/svg"
 width="260.000000pt" height="260.000000pt" viewBox="0 0 260.000000 260.000000"
 preserveAspectRatio="xMidYMid meet">
<metadata>
Created by potrace 1.14, written by Peter Selinger 2001-2017
</metadata>
<g transform="translate(0.000000,260.000000) scale(0.100000,-0.100000)"
fill="#000000" stroke="none">
<path d="M1469 2396 c-2 -3 -29 -6 -59 -7 -30 -1 -65 -9 -76 -16 -16 -10 -28
-11 -49 -3 -38 14 -126 6 -161 -16 -16 -10 -46 -33 -66 -52 -35 -33 -39 -35
-118 -35 -80 -1 -83 -2 -123 -38 -34 -31 -44 -36 -64 -28 -26 10 -73 9 -73 -2
0 -4 7 -12 15 -19 17 -14 13 -23 -10 -26 -7 -1 -16 5 -19 13 -4 8 -12 13 -20
10 -7 -3 -18 -1 -23 4 -24 24 -84 -18 -75 -53 1 -3 -15 -4 -36 -1 -38 4 -90 7
-117 4 -12 -1 -13 -5 -6 -19 18 -33 -3 -46 -74 -47 -57 -1 -68 -4 -82 -26 -10
-13 -25 -31 -34 -39 -22 -19 -33 -56 -19 -65 5 -3 10 -15 10 -25 0 -10 6 -20
13 -23 9 -3 5 -17 -13 -52 -21 -41 -33 -51 -77 -68 -29 -11 -51 -23 -48 -27 6
-10 -24 -50 -39 -50 -16 0 -28 -25 -18 -35 7 -6 8 -11 10 -53 1 -14 11 -26 26
-32 24 -9 25 -12 24 -108 0 -91 2 -105 30 -164 37 -75 63 -102 197 -191 216
-144 251 -168 275 -195 28 -30 83 -78 120 -104 14 -10 80 -59 148 -110 199
-150 204 -154 265 -187 32 -17 77 -52 100 -77 23 -25 54 -52 69 -60 15 -8 29
-22 32 -31 7 -22 114 -84 198 -114 117 -42 366 -33 568 21 25 6 83 30 129 52
108 51 223 162 261 250 25 58 42 69 48 31 3 -22 38 -38 48 -22 4 8 -28 64 -46
79 -3 3 0 26 7 53 14 47 38 63 49 32 4 -8 11 -15 17 -15 5 0 2 9 -8 20 -10 11
-25 20 -33 20 -10 0 -12 5 -7 18 12 27 15 322 4 382 -32 178 -89 364 -159 520
-61 136 -64 146 -45 154 8 3 15 1 15 -3 0 -13 25 -20 50 -14 20 5 20 7 -12 34
-18 15 -36 28 -40 29 -5 0 -31 16 -58 36 -58 42 -90 91 -68 105 10 7 9 9 -4 9
-10 0 -25 15 -34 33 -37 70 -118 178 -169 225 -83 76 -125 92 -231 91 -49 0
-99 2 -111 5 -16 3 -28 -3 -42 -20 l-20 -25 2 28 c2 26 -1 28 -38 29 -22 1
-54 5 -71 8 -16 4 -32 4 -35 2z m-279 -116 c0 -5 -2 -10 -4 -10 -3 0 -8 5 -11
10 -3 6 -1 10 4 10 6 0 11 -4 11 -10z m30 -6 c0 -8 -4 -12 -10 -9 -5 3 -10 10
-10 16 0 5 5 9 10 9 6 0 10 -7 10 -16z"/>
</g>
</svg>
